<svg xmlns="http://www.w3.org/2000/svg" enable-background="new 0 0 32 32" viewBox="0 0 32 32" id="Discount">
  <path d="M29.971,16c0-0.43,0.229-1.005,0.451-1.562c0.376-0.943,0.803-2.013,0.439-3.087c-0.374-1.104-1.391-1.732-2.287-2.287
		c-0.51-0.315-1.035-0.641-1.284-0.968c-0.251-0.33-0.406-0.885-0.571-1.473c-0.275-0.985-0.589-2.102-1.55-2.772
		c-0.938-0.652-2.12-0.594-3.165-0.544c-0.622,0.03-1.265,0.062-1.698-0.073c-0.395-0.123-0.853-0.479-1.338-0.857
		C18.14,1.731,17.201,1,16,1s-2.14,0.731-2.969,1.377c-0.484,0.378-0.942,0.734-1.338,0.857c-0.433,0.134-1.076,0.103-1.698,0.073
		C8.953,3.259,7.768,3.2,6.83,3.854C5.869,4.522,5.556,5.64,5.281,6.625C5.115,7.213,4.96,7.768,4.709,8.098
		C4.461,8.424,3.935,8.749,3.426,9.063c-0.896,0.556-1.913,1.185-2.288,2.288c-0.363,1.074,0.063,2.144,0.439,3.087
		C1.799,14.995,2.029,15.57,2.029,16s-0.229,1.005-0.451,1.562c-0.376,0.943-0.803,2.013-0.439,3.087
		c0.374,1.104,1.391,1.732,2.287,2.287c0.51,0.315,1.035,0.641,1.284,0.968c0.251,0.33,0.406,0.885,0.571,1.473
		c0.275,0.985,0.589,2.102,1.55,2.772c0.938,0.652,2.118,0.593,3.165,0.544c0.623-0.029,1.267-0.061,1.698,0.073
		c0.395,0.123,0.853,0.479,1.338,0.857C13.86,30.269,14.799,31,16,31s2.14-0.731,2.969-1.377c0.484-0.378,0.942-0.734,1.338-0.857
		c0.433-0.134,1.075-0.104,1.698-0.073c1.042,0.05,2.228,0.108,3.165-0.546c0.961-0.669,1.274-1.786,1.55-2.771
		c0.165-0.588,0.32-1.143,0.571-1.473c0.248-0.326,0.774-0.651,1.283-0.966c0.896-0.556,1.913-1.185,2.288-2.288
		c0.363-1.074-0.063-2.144-0.439-3.087C30.201,17.005,29.971,16.43,29.971,16z M28.565,18.302c0.261,0.653,0.529,1.329,0.402,1.704
		c-0.144,0.423-0.806,0.833-1.446,1.229c-0.663,0.41-1.35,0.835-1.822,1.456c-0.482,0.634-0.697,1.401-0.905,2.144
		c-0.194,0.694-0.396,1.412-0.768,1.671c-0.378,0.264-1.165,0.226-1.925,0.188c-0.794-0.039-1.619-0.078-2.389,0.161
		c-0.743,0.231-1.368,0.719-1.974,1.189C17.109,28.536,16.514,29,16,29s-1.109-0.464-1.739-0.955
		c-0.605-0.471-1.23-0.958-1.974-1.189c-0.481-0.149-0.982-0.19-1.485-0.19c-0.302,0-0.604,0.016-0.903,0.029
		c-0.76,0.038-1.547,0.075-1.925-0.188c-0.372-0.26-0.573-0.977-0.768-1.671c-0.208-0.742-0.423-1.51-0.905-2.144
		c-0.473-0.621-1.159-1.047-1.823-1.457c-0.64-0.396-1.302-0.807-1.445-1.229c-0.127-0.375,0.142-1.051,0.402-1.704
		C3.713,17.604,4.029,16.813,4.029,16s-0.315-1.604-0.594-2.302c-0.261-0.653-0.529-1.329-0.402-1.704
		c0.144-0.423,0.806-0.833,1.446-1.229c0.663-0.41,1.35-0.835,1.822-1.456c0.482-0.634,0.697-1.401,0.905-2.144
		c0.194-0.694,0.395-1.412,0.768-1.671c0.377-0.265,1.163-0.229,1.925-0.188c0.794,0.039,1.619,0.078,2.389-0.161
		c0.743-0.231,1.368-0.719,1.974-1.189C14.891,3.464,15.486,3,16,3s1.109,0.464,1.739,0.955c0.605,0.471,1.23,0.958,1.974,1.189
		c0.77,0.239,1.592,0.198,2.389,0.161c0.761-0.039,1.547-0.076,1.925,0.188c0.372,0.26,0.573,0.977,0.768,1.671
		c0.208,0.742,0.423,1.51,0.905,2.144c0.473,0.621,1.159,1.047,1.823,1.457c0.64,0.396,1.302,0.807,1.445,1.229
		c0.127,0.375-0.142,1.051-0.402,1.704c-0.278,0.697-0.594,1.488-0.594,2.302S28.287,17.604,28.565,18.302z" fill="#ffffff" class="color000000 svgShape"></path>
  <circle cx="12" cy="12" r="2" fill="#ffffff" class="color000000 svgShape"></circle>
  <circle cx="20" cy="20" r="2" fill="#ffffff" class="color000000 svgShape"></circle>
  <path d="M19.515,10.143c-0.475-0.284-1.088-0.13-1.372,0.343l-6,10c-0.284,0.474-0.131,1.088,0.343,1.372
		C12.646,21.954,12.824,22,12.999,22c0.34,0,0.671-0.173,0.858-0.485l6-10C20.142,11.041,19.988,10.427,19.515,10.143z" fill="#ffffff" class="color000000 svgShape"></path>
</svg>
